<svg xmlns="http://www.w3.org/2000/svg" viewBox="0 0 64 64">
  <defs>
    <linearGradient id="astroWeb" x1="0%" y1="0%" x2="100%" y2="100%">
      <stop offset="0%" stop-color="#40CCFF" />
      <stop offset="100%" stop-color="#0A93C2" />
    </linearGradient>
  </defs>
  <circle cx="32" cy="32" r="28" fill="none" stroke="url(#astroWeb)" stroke-width="3" />
  <path d="M32 4a44 44 0 0 1 0 56M32 4a44 44 0 0 0 0 56" fill="none" stroke="url(#astroWeb)" stroke-width="2" />
  <path d="M4 32h56M8 20h48M8 44h48" fill="none" stroke="url(#astroWeb)" stroke-width="2" />
  <path d="M32 10 L38 28 L54 32 L38 36 L32 54 L26 36 L10 32 L26 28 Z" fill="#FFFFFF" stroke="url(#astroWeb)" stroke-width="1" />
  <path d="M20 16 L22 22 L28 24 L22 26 L20 32 L18 26 L12 24 L18 22 Z" fill="#FFFFFF" stroke="url(#astroWeb)" stroke-width="0.8" />
  <path d="M44 40 L46 44 L50 46 L46 48 L44 52 L42 48 L38 46 L42 44 Z" fill="#FFFFFF" stroke="url(#astroWeb)" stroke-width="0.8" />
</svg>
